<svg width="32" height="32" fill="none" xmlns="http://www.w3.org/2000/svg"><path fill="#fff" d="M0 0h32v32H0z"/><mask id="mask0" maskUnits="userSpaceOnUse" x="0" y="0" width="32" height="32"><path fill="#C4C4C4" d="M0 0h32v32H0z"/></mask><g mask="url(#mask0)"><path d="M24.058 20.275c-.79-.1-1.55-.204-2.31-.293-.875-.103-1.75-.198-2.625-.287a.742.742 0 01-.395-.14 47.31 47.31 0 00-2.499-1.753.777.777 0 01-.304-.379c-.583-1.414-1.173-2.825-1.762-4.236-.028-.065-.034-.15-.134-.188-.341.835-.685 1.67-1.025 2.508L9.02 25.336c-.71 1.748-1.424 3.495-2.126 5.246-.09.225-.19.323-.44.322a514.362 514.362 0 00-6.135-.001c-.248.001-.269-.089-.299-.32-.113-.889.353-1.58.671-2.313 2.118-4.876 4.249-9.746 6.374-14.618 1.792-4.11 3.584-8.219 5.368-12.332.101-.233.212-.326.464-.32.82.02 1.64.017 2.46.002.227-.005.334.075.428.29 1.53 3.51 3.068 7.016 4.603 10.524 1.214 2.772 2.424 5.546 3.636 8.319.011.03.015.062.035.14z" fill="#E32429"/><path d="M-3.61 29.658c.48-1.077.934-2.168 1.449-3.227.66-1.357 1.427-3.245 1.736-3.99.867-2.079 1.983-4.52 2.094-4.792.597-1.455.96-2.187 1.59-3.64C5.102 9.783 6.95 5.562 8.79 1.336c.107-.246.237-.349.5-.334.486.025.973.015 1.458.003.233-.005.325.002.195.297C9.808 3.867 8.69 6.44 7.566 9.01L1.11 23.76c-.85 1.942-1.693 3.886-2.55 5.824-.154.345-.086.693-.089 1.039-.002.23-.067.286-.275.28a27.07 27.07 0 00-1.579 0c-.22.007-.284-.074-.267-.293.025-.319-.032-.641.043-.958l-.004.005z" fill="#E3242A"/><path d="M8.243 29.478l3.194-7.872.057.01v1.69c.88-.538 1.716-1.046 2.59-1.579-.664-.404-1.289-.797-1.925-1.167-.19-.11-.223-.2-.132-.414.35-.826.683-1.66 1.013-2.494.065-.167.123-.212.305-.16 1.101.307 2.145.736 3.09 1.425.755.552 1.55 1.041 2.273 1.645.077.064.162.08.254.085 1.717.105 3.431.241 5.138.462 2.336.303 4.661.67 6.87 1.592a8.5 8.5 0 011.878 1.091c.76.58 1.06 1.312.77 2.285a2.79 2.79 0 00.11 1.937c.114.27.18.566.245.855.093.41-.062.629-.456.631-1.195.007-2.39-.002-3.584.007-.237.002-.182-.101-.122-.247a4.34 4.34 0 00.12-3.063c-.598-1.841-2.32-3.018-4.129-2.833-1.817.186-3.305 1.652-3.574 3.543a4.3 4.3 0 00.285 2.32c.072.17.213.773-.052.773-4.678-.007-9.528.001-14.206 0 0 0-.161-.154-.012-.522zm6.793-3.924l2.568-1.57-2.568-1.565v3.136zm-1.59 1.487V24.4l-2.16 1.32 2.16 1.32zm-3.343-.352v2.25c.625-.38 1.222-.745 1.843-1.125l-1.843-1.125zm4.932 2.253l1.296-.798-1.296-.786v1.584z" fill="#3E3E3E"/><path d="M29.401 27.551c.009 1.892-1.43 3.436-3.215 3.45-1.784.013-3.244-1.513-3.256-3.404-.013-1.912 1.424-3.455 3.228-3.47 1.772-.013 3.235 1.532 3.243 3.424zm-2.14.02c.001-.648-.48-1.164-1.091-1.169-.605-.004-1.102.518-1.104 1.158-.002.64.49 1.167 1.094 1.171.603.005 1.099-.518 1.1-1.16z" fill="#3E3E3E"/></g></svg>