<svg width="137" height="135" fill="none" xmlns="http://www.w3.org/2000/svg"><path d="M102.389 23.75A72083.876 72083.876 0 0182.13 1.457H1.831v65.858m134.141 0s.769-5.964-5.696-12.95a2428.99 2428.99 0 01-9.241-10.114" stroke="#fff" stroke-width="2" stroke-miterlimit="10" stroke-linecap="round" stroke-linejoin="round"/><path d="M12.978 1.457s38.224 49.896 42.47 55.519c4.076 5.398 3.886 10.339 3.886 10.339M82.13 1.457L47.113 46.05m17.509-22.3h56.406v43.565m-49.446 0h34.59L87.356 48.47m15.033 62.403a72083.876 72083.876 0 00-20.259 22.293H1.831V67.315m134.141 0s.769 5.963-5.696 12.95a2433.83 2433.83 0 00-9.241 10.113" stroke="#fff" stroke-width="2" stroke-miterlimit="10" stroke-linecap="round" stroke-linejoin="round"/><path d="M12.978 133.166s38.224-49.896 42.47-55.519c4.076-5.398 3.886-10.339 3.886-10.339m22.796 65.858L47.113 88.572m17.509 22.301h56.406V67.315m-49.446 0h34.59L87.356 86.153" stroke="#fff" stroke-width="2" stroke-miterlimit="10" stroke-linecap="round" stroke-linejoin="round"/></svg>