<svg width="143" height="156" fill="none" xmlns="http://www.w3.org/2000/svg"><path d="M7.173 69.91V1.297h111.39v64.006M7.173 16.226h111.39M25.508 37.731h63.155M25.508 48.542h63.155M25.215 59.925h39.123M54 130l23.874-.048m-44.929-10.925c9.302 6.722 22.305 4.613 29.043-4.711 6.738-9.323 4.659-22.331-4.643-29.054-9.302-6.722-22.305-4.613-29.043 4.71-6.738 9.325-4.66 22.332 4.643 29.055z" stroke="#fff" stroke-width="2" stroke-miterlimit="10" stroke-linecap="round" stroke-linejoin="round"/><path d="M29.39 115.759l-10.316 26.773 15.727-8.769 8.845 13.275 5.716-24.525M32.97 104.594a12.364 12.364 0 012.264-8.785c4.015-5.556 11.759-6.812 17.302-2.806a12.332 12.332 0 015.1 9.305m78.465-3.14L130.828 72 76 81.186l8.705 44.819 1.948 9.232 54.828-9.186-5.38-26.883z" stroke="#fff" stroke-width="2" stroke-miterlimit="10" stroke-linecap="round" stroke-linejoin="round"/><path d="M86 90.921L88.897 94 91 88m7.197 2.034l25.445-4.566M89 105.921L91.897 109 94 103m7.095 1.914l25.444-4.56M92 120.919L94.897 124 97 118m7.256 2.046l25.445-4.56M15.629 130H7V83.5" stroke="#fff" stroke-width="2" stroke-miterlimit="10" stroke-linecap="round" stroke-linejoin="round"/></svg>