<svg width="27" height="27" fill="none" xmlns="http://www.w3.org/2000/svg"><path d="M21.793 25.415H4.64c-2.002 0-3.64-1.673-3.64-3.72V4.72C1 2.674 2.638 1 4.64 1h17.153c2.003 0 3.64 1.674 3.64 3.72v16.975c.003 2.047-1.637 3.72-3.64 3.72z" stroke="#8a3ab9" stroke-width="1.5" stroke-miterlimit="10" stroke-linecap="round" stroke-linejoin="round"/><path d="M13.217 19.294c3.474 0 6.29-2.878 6.29-6.429 0-3.55-2.816-6.428-6.29-6.428-3.475 0-6.291 2.878-6.291 6.428 0 3.551 2.816 6.43 6.29 6.43z" stroke="#bc2a8d" stroke-width="1.5" stroke-miterlimit="10" stroke-linecap="round" stroke-linejoin="round"/><path d="M20.53 6.768c.386 0 .698-.32.698-.714a.706.706 0 00-.698-.714.706.706 0 00-.699.714c0 .394.313.714.699.714z" stroke="#fbad50" stroke-width="1.5" stroke-miterlimit="10" stroke-linecap="round" stroke-linejoin="round"/></svg>