<svg width="210" height="54" fill="none" xmlns="http://www.w3.org/2000/svg"><path d="M172.298 10.564c.004 4.914-2.413 8.657-6.647 10.122-4.047 1.401-7.842.837-11.141-2.004-1.967-1.694-2.93-3.951-3.193-6.513-.263-2.563.045-5.034 1.406-7.274 1.745-2.873 4.394-4.383 7.665-4.773 3.058-.365 5.88.335 8.3 2.32 2.193 1.797 3.268 4.187 3.538 6.972.04.425.054.851.072 1.15zm-15.607.226c-.02.396.016.89.113 1.385.415 2.111 2.145 3.782 4.191 4.032 2.403.294 4.444-.808 5.384-2.923.551-1.24.614-2.535.404-3.86a5.037 5.037 0 00-6.05-4.133c-2.563.56-4.042 2.534-4.042 5.499zm-24.137-.533c2.304 1.38 2.69 3.439 2.203 5.805-.509 2.483-1.996 4.115-4.511 4.709-.614.144-1.242.19-1.871.192-2.977.004-5.955-.008-8.932.013-.449.004-.542-.132-.541-.557.013-6.5.012-13 .001-19.5-.001-.388.057-.538.499-.535 2.755.023 5.511-.006 8.266.018 3.179.025 5.655 2.007 6.279 5.044.309 1.5.208 3.09-1.393 4.811zm-6.193 5.98c.591 0 1.182.017 1.773-.003 1-.035 1.57-.652 1.577-1.674.007-1.036-.598-1.742-1.576-1.762-1.255-.026-2.511 0-3.767-.012-.263-.002-.353.077-.349.345.014.925.015 1.849-.001 2.774-.004.273.089.344.349.339.665-.016 1.329-.006 1.994-.007zm-.525-7.834v-.028c.496 0 .995.021 1.49-.005.953-.048 1.498-.652 1.495-1.615-.005-.95-.588-1.609-1.507-1.634-.977-.028-1.955-.001-2.932-.012-.243-.003-.368.037-.363.325.017.886.013 1.772.003 2.66-.004.244.087.32.323.313.496-.013.993-.004 1.491-.004zm-10.714 12.562c-.703 0-1.407-.014-2.108.007-.326.01-.502-.108-.629-.407-.262-.61-.572-1.197-.835-1.805-.117-.27-.256-.4-.571-.4-2.422.012-4.845.013-7.268 0-.317-.003-.46.13-.574.399-.267.625-.563 1.24-.839 1.862-.109.244-.265.353-.55.35a206.6 206.6 0 00-4.383 0c-.328.004-.393-.111-.403-.414-.025-.771.444-1.357.736-1.995 2.746-6.013 5.527-12.008 8.282-18.016.168-.368.375-.502.75-.45.109.016.222.002.333.002 1.449 0 1.429.01 2.024 1.31 1.779 3.884 3.574 7.762 5.363 11.642l3.172 6.87c.07.152.099.308.121.476.061.46-.095.611-.568.58-.683-.044-1.369-.01-2.053-.01zm-7.805-12.433c-.755 1.762-1.46 3.412-2.171 5.06-.083.191-.049.266.166.266 1.426-.003 2.851-.001 4.341-.001-.784-1.791-1.536-3.502-2.336-5.325z" fill="#E3242A"/><path d="M187.521 41.688c-.271.019-.355.18-.467.29-3.112 3.035-6.228 6.069-9.325 9.12-.344.338-.682.483-1.161.472-1.254-.03-1.256-.01-1.256-1.29 0-6.203.009-12.408-.015-18.611-.002-.584.166-.702.708-.687 1.404.039 2.81.03 4.215.002.42-.008.523.112.521.526-.018 2.982-.01 5.963-.01 8.945v.382c.263.025.347-.17.468-.289 3.112-3.035 6.229-6.068 9.321-9.124.4-.395.787-.575 1.352-.553 1.142.044 1.143.013 1.143 1.18 0 6.26.001 12.52-.001 18.778 0 .84.078.724-.751.729-1.368.005-2.737-.02-4.104.012-.489.011-.658-.098-.652-.63.028-2.87.013-5.74.013-8.61l.001-.642zm-24.497 9.952c-1.83 0-3.66.01-5.49-.007-.385-.003-.527.106-.501.5.031.442-.013.889.014 1.331.021.354-.12.436-.449.431a117.941 117.941 0 00-3.549.002c-.34.005-.441-.093-.439-.437.016-2.018.016-4.037 0-6.055-.003-.358.131-.462.452-.419.037.005.076-.006.111.001 1.202.265 1.737-.299 2.194-1.403 1.986-4.791 4.084-9.536 6.131-14.302.162-.378.375-.495.807-.56 1.351-.207 1.961.349 2.492 1.598 1.995 4.707 4.145 9.349 6.215 14.025.205.464.418.705.964.658.468-.041 1.084-.218 1.387.088.302.304.092.916.095 1.39.012 1.648-.004 3.295.011 4.943.004.357-.091.482-.464.474a96.437 96.437 0 00-3.494-.001c-.342.005-.46-.105-.438-.443.024-.369-.027-.744.013-1.11.059-.54-.093-.733-.684-.719-1.791.044-3.585.016-5.378.016zm-.142-12.038c-.914 2.385-1.79 4.672-2.668 6.957-.151.395.136.326.344.327 1.587.002 3.175-.013 4.763.01.474.007.415-.178.287-.491-.39-.956-.761-1.92-1.144-2.877-.512-1.278-1.029-2.554-1.582-3.926zm-63.347 1.674c0-3.222.013-6.444-.013-9.667-.005-.53.16-.636.648-.626 1.423.031 2.848.028 4.271.001.422-.008.526.121.521.532-.019 2.222.009 4.444-.022 6.666-.008.517.162.633.629.593.608-.052 1.217-.099 1.8-.28 1.691-.527 2.443-1.804 2.704-3.454.185-1.173.121-2.363.187-3.543.02-.366.079-.518.486-.512 1.497.024 2.995.011 4.492.008.251 0 .493-.028.463.353-.144 1.857.039 3.735-.458 5.57-.51 1.884-1.521 3.396-3.117 4.505-.302.21-.359.345-.151.68 1.703 2.728 3.383 5.469 5.069 8.207.068.11.144.218.191.337.246.636.06.915-.603.915-1.552 0-3.106-.013-4.659.009-.399.005-.619-.11-.821-.471-1.284-2.31-2.608-4.597-3.896-6.905-.226-.407-.464-.57-.946-.524-1.356.131-1.358.108-1.358 1.48 0 1.963-.011 3.926.009 5.889.004.409-.099.54-.523.532a89.129 89.129 0 00-4.326.004c-.53.016-.59-.178-.587-.631.019-3.223.01-6.446.01-9.668zm20.002.001c0-3.24.01-6.479-.012-9.718-.003-.472.135-.578.588-.575 2.864.021 5.729.001 8.594.013 3.835.016 6.813 2.802 7.171 6.637.238 2.548-.345 4.815-2.151 6.678-1.316 1.358-2.991 1.935-4.843 2.003-1.2.043-2.403.03-3.604.01-.389-.007-.503.11-.497.499.021 1.425-.003 2.85.015 4.275.005.366-.109.474-.47.47a147.41 147.41 0 00-4.325.002c-.418.008-.475-.158-.474-.518.012-3.26.008-6.518.008-9.776zm5.251-2.614c0 .795.016 1.59-.006 2.384-.011.368.069.526.48.515 1.089-.028 2.178-.007 3.268-.011.631-.004 1.136-.27 1.524-.767.83-1.063.927-2.963.187-4.081-.373-.564-.879-.912-1.592-.959-1.126-.074-2.251-.014-3.377-.045-.405-.011-.5.153-.49.525.022.811.006 1.626.006 2.439zm12.846 2.627c0-3.259.007-6.517-.009-9.775-.002-.405.091-.532.516-.53 3.937.017 7.875.016 11.811.002.394 0 .554.072.543.512a85.473 85.473 0 00-.002 3.72c.008.419-.137.541-.544.538-2.125-.017-4.251-.008-6.377-.008-.702 0-.702 0-.702.728 0 .537.024 1.075-.007 1.61-.024.398.126.498.504.494 1.978-.016 3.956.005 5.934-.017.432-.005.57.104.559.551a67.867 67.867 0 00.001 3.666c.014.466-.157.543-.57.54-1.959-.02-3.919.005-5.878-.02-.445-.005-.57.129-.553.563.034.776.041 1.557-.002 2.332-.029.522.114.698.664.69 2.198-.031 4.399.007 6.598-.027.532-.007.637.167.624.653a88.648 88.648 0 00-.005 3.61c.005.33-.076.447-.428.446-4.086-.013-8.17-.015-12.255.002-.42 0-.428-.195-.427-.505.007-3.26.005-6.517.005-9.775zm67.341 2.414c0 2.445-.01 4.89.009 7.336.003.414-.106.537-.526.529a98.76 98.76 0 00-4.216.002c-.47.011-.54-.165-.539-.575.013-4.852-.002-9.705.022-14.559.002-.562-.137-.725-.703-.705-1.293.045-2.589.004-3.883.021-.362.006-.475-.1-.469-.47.022-1.277.021-2.556 0-3.834-.005-.368.109-.464.467-.464 4.791.011 9.58.012 14.37 0 .391-.002.5.106.493.495-.024 1.277-.02 2.556-.003 3.834.005.344-.106.443-.442.44-1.332-.017-2.664.02-3.995-.02-.52-.016-.6.174-.596.635.022 2.446.011 4.89.011 7.335z" fill="#464646"/><path d="M140.524 13.045c0-2.462-.009-4.925.009-7.386.003-.415-.076-.57-.533-.558-1.349.034-2.698-.001-4.048.021-.366.006-.464-.101-.457-.462.021-1.278.019-2.555.001-3.832-.004-.336.079-.44.428-.44 4.806.013 9.612.01 14.419.003.3 0 .418.064.414.392-.018 1.314-.018 2.63 0 3.943.004.327-.11.396-.411.393-1.331-.015-2.663.024-3.992-.021-.542-.02-.617.175-.616.651.015 4.85-.003 9.701.027 14.552.003.59-.175.692-.707.677a89.262 89.262 0 00-4.048-.004c-.383.007-.497-.091-.495-.487.018-2.48.009-4.961.009-7.442zM69.506 33.339c-1.443-.175-2.83-.353-4.22-.507a317.492 317.492 0 00-4.794-.496c-.268-.026-.504-.086-.72-.241a86.68 86.68 0 00-4.564-3.034 1.361 1.361 0 01-.556-.655 1766.997 1766.997 0 00-3.219-7.327c-.05-.113-.062-.26-.244-.325-.623 1.444-1.25 2.89-1.871 4.338-2.428 5.666-4.853 11.333-7.279 17-1.295 3.024-2.6 6.045-3.883 9.074-.164.388-.346.56-.801.556a991.98 991.98 0 00-11.207-.001c-.453.002-.49-.153-.545-.555-.207-1.536.644-2.73 1.225-4 3.867-8.433 7.76-16.856 11.64-25.284A10881.34 10881.34 0 0048.273.554c.186-.403.388-.564.848-.554 1.497.035 2.996.03 4.494.003.414-.008.61.13.78.502 2.794 6.071 5.604 12.136 8.407 18.202 2.217 4.795 4.428 9.593 6.64 14.39.02.05.029.106.065.242z" fill="#E32429"/><path d="M18.973 49.568c.877-1.864 1.707-3.75 2.647-5.581.57-1.109.748-2.233.698-3.455-.059-1.422-.013-2.849-.013-4.375.674.386 1.295.723 1.896 1.094.29.179.432.193.59-.167.56-1.273 1.159-2.529 1.812-3.943-.949.557-1.752 1.024-2.55 1.498-.306.182-.427.168-.425-.249.015-2.629.008-5.258.008-8 .761.436 1.467.84 2.17 1.246.766.441 1.539.871 2.29 1.335.288.178.403.093.518-.174.206-.473.666-.991.578-1.393-.091-.413-.81-.549-1.244-.823-.478-.302-.976-.57-1.515-.88 1.546-.893 3.04-1.76 4.542-2.618.249-.142.422-.313.545-.582C34.883 15.192 38.258 7.89 41.62.58c.195-.426.431-.603.914-.578.886.043 1.775.026 2.662.006.425-.01.594.004.355.514-2.071 4.436-4.112 8.886-6.165 13.33-3.93 8.505-7.86 17.01-11.788 25.516-1.552 3.358-3.092 6.721-4.66 10.072-.28.597-.155 1.2-.16 1.798-.005.398-.124.494-.503.484a51.908 51.908 0 00-2.884 0c-.4.011-.518-.128-.487-.507.046-.551-.059-1.11.078-1.657l-.008.009z" fill="#E3242A"/><path d="M40.623 49.256l5.834-13.615.103.018v2.922l4.729-2.73c-1.211-.7-2.352-1.38-3.514-2.02-.346-.191-.407-.347-.242-.716.64-1.427 1.248-2.87 1.85-4.313.12-.288.224-.366.558-.278 2.01.532 3.917 1.274 5.642 2.467 1.38.954 2.833 1.8 4.152 2.845.14.11.295.136.464.146 3.135.182 6.266.417 9.384.8 4.266.523 8.513 1.16 12.546 2.754a15.68 15.68 0 013.43 1.886c1.388 1.002 1.935 2.27 1.407 3.952-.357 1.134-.29 2.25.2 3.35.21.468.329.98.449 1.48.169.709-.114 1.087-.834 1.091-2.182.012-4.364-.003-6.546.012-.433.004-.332-.175-.223-.428.747-1.736.834-3.508.22-5.297-1.092-3.185-4.236-5.22-7.54-4.9-3.319.321-6.037 2.857-6.528 6.127-.206 1.379-.055 2.729.52 4.014.132.293.21.487-.274.487-8.544-.013-17.087-.01-25.63-.011-.034 0-.066-.017-.157-.043zm12.405-6.786a12893.1 12893.1 0 004.691-2.714l-4.691-2.709v5.423zm-2.903 2.57v-4.566l-3.946 2.283c1.35.78 2.627 1.52 3.946 2.284zm-6.106-.607v3.893l3.367-1.947-3.367-1.946zm9.008 3.897c.823-.48 1.58-.92 2.367-1.38l-2.367-1.36v2.74z" fill="#464646"/><path d="M79.264 45.923c.016 3.273-2.612 5.942-5.872 5.966-3.257.023-5.923-2.616-5.947-5.887a5.929 5.929 0 015.896-6c3.237-.023 5.909 2.648 5.923 5.921zm-3.91.034a1.997 1.997 0 00-1.992-2.02 2.011 2.011 0 00-2.015 2.002 2.02 2.02 0 001.997 2.026 2.01 2.01 0 002.01-2.008z" fill="#464646"/><path d="M20.984 35.382l-5.34 3.087V32.3c1.787 1.033 3.542 2.045 5.34 3.082zm-.04-3.606l-5.369-3.106 5.369-3.107v6.213zm-.67 14.76l-5.34-3.086 5.34-3.092v6.178zM11.198 32.29v6.185l-5.346-3.09 5.346-3.095zM8.503 42.912l4.454-2.578v5.148l-4.454-2.57zm10.477 6.647c-.13-.19-.226-.003-.31.045-1.103.626-2.2 1.26-3.3 1.892-.108.063-.205.163-.376.134v-4.545c.896.51 1.765 1.003 2.633 1.5.35.2.691.42 1.046.613.16.087.286.176.299.37a.068.068 0 00.009-.01zM5.864 44.368l-3.46-1.992 3.46-2.007v3.999zm.917-16.776c1.2-.692 2.325-1.344 3.538-2.044 0 1.312-.002 2.538.002 3.764 0 .365-.192.225-.347.136-1.048-.606-2.095-1.218-3.193-1.856zM0 37.143v-3.51c1.021.585 2 1.146 3.043 1.746L0 37.143zm7.324 13.064V46.72c1.005.576 1.965 1.128 3.021 1.735l-3.02 1.75zm17.773-25.178l-2.323-1.344 2.323-1.354v2.698z" fill="#E3242A"/></svg>