<svg width="129" height="148" fill="none" xmlns="http://www.w3.org/2000/svg"><path d="M119.135 40.642v-8.57c0-3.003-2.419-5.432-5.409-5.432h-7.135M78.614 139.495h35.112c2.99 0 5.409-2.429 5.409-5.431V70.748M47.027 16.685H6.492c-2.99 0-5.409 2.429-5.409 5.43v65.333" stroke="#fff" stroke-width="2" stroke-miterlimit="10" stroke-linecap="round" stroke-linejoin="round"/><path d="M113.726 139.495c-7.135 0-7.135-4.844-7.135-7.846V22.116c0-3.002-2.419-5.431-5.409-5.431H61.601" stroke="#fff" stroke-width="2" stroke-miterlimit="10" stroke-linecap="round" stroke-linejoin="round"/><path d="M106.591 36.066l18.285 6.671-18.285 49.322m0 4.292l21.325-43.542-5.661-2.994M50.27 35.595a3.249 3.249 0 01-3.243-3.256V17.098a3.249 3.249 0 013.243-3.256h8.088a3.249 3.249 0 013.243 3.256v15.241a3.249 3.249 0 01-3.243 3.256H50.27z" stroke="#fff" stroke-width="2" stroke-miterlimit="10" stroke-linecap="round" stroke-linejoin="round"/><path d="M54.48 29.896a.919.919 0 00.917-.92c0-.51-.41-.922-.917-.922a.919.919 0 00-.917.921c0 .509.41.921.917.921zm56.56-3.256l3.466-9.694L72.144 1.088l-5.546 15.596M16.183 146.912H3.618a2.547 2.547 0 01-2.535-2.545V98.744c0-1.4 1.141-2.545 2.535-2.545H16.19a2.548 2.548 0 012.535 2.545v45.623c-.008 1.4-1.149 2.545-2.543 2.545zm2.99-45.855s14.84-15.038 16.747-18.73c1.913-3.69 1.747-11.826 2.426-12.55 1.748-1.871 6.883-1.908 8.377-.885 1.047.71 7.62 9.26-.44 28.424 0 0 14.884-.225 21.058-.225 6.175 0 9.72 2.226 9.72 6.642 0 5.271-2.397 6.939-2.397 6.939s3.777 2.016 2.629 6.939c-1.142 4.895-5.568 5.902-5.568 5.902s2.982 3.176 1.321 8.267c-1.567 4.821-6.153 5.242-6.153 5.242s3.077 7.019-3.408 8.781c-2.463.667-26.54 0-30.952 0-4.413 0-13.143-5.177-13.143-5.177" stroke="#fff" stroke-width="2" stroke-miterlimit="10" stroke-linecap="round" stroke-linejoin="round"/></svg>