<svg width="149" height="143" fill="none" xmlns="http://www.w3.org/2000/svg"><path d="M42.223 72.988c5.08 0 9.2-4.145 9.2-9.258 0-5.113-4.12-9.258-9.2-9.258-5.08 0-9.2 4.145-9.2 9.258 0 5.113 4.12 9.258 9.2 9.258zm39.082 0c5.116 0 9.263-4.174 9.263-9.322 0-5.149-4.147-9.322-9.263-9.322s-9.263 4.173-9.263 9.322c0 5.148 4.147 9.322 9.263 9.322zm-9.264-9.194H51.415" stroke="#fff" stroke-width="2" stroke-miterlimit="10" stroke-linecap="round" stroke-linejoin="round"/><path d="M90.87 63.794l7.14-2.94-.82-13.662c-.263-5.83-18.638-6.631-18.638-6.631L71.5 30.086c-2.857-3.692-7.648-3.564-7.648-3.564h-28.3l-11.475 13.07 1.297 24.202h7.648" stroke="#fff" stroke-width="2" stroke-miterlimit="10" stroke-linecap="round" stroke-linejoin="round"/><path d="M71.493 30.078h-18.24v8.297l4.648 4.669h18.168l2.475-2.491" stroke="#fff" stroke-width="2" stroke-miterlimit="10" stroke-linecap="round" stroke-linejoin="round"/><path d="M53.444 30.078H39.85l-5.793 8.641 4.297 4.325h10.234l4.664-4.67m43.436 10.564h-6.287l1.672 4.66h4.687m-72.1-7.038h6.278l-3.9-4.662-2.498.08" stroke="#fff" stroke-width="2" stroke-miterlimit="10" stroke-linecap="round" stroke-linejoin="round"/><path d="M76.284 131.556l-66.894.801c-4.528 0-8.197-3.692-8.197-8.249V9.45c0-4.557 3.67-8.249 8.197-8.249h106.822c4.528 0 8.197 3.692 8.197 8.249v75.098m-99.535 2.158h43.364m-43.396 8.008h43.364m-43.364 8.009h30.79" stroke="#fff" stroke-width="2" stroke-miterlimit="10" stroke-linecap="round" stroke-linejoin="round"/><path d="M125.993 119.583c4.337-9.786 2.164-20.838-5.81-28.862-10.337-10.404-27.097-10.404-37.427 0-10.33 10.403-10.338 27.268 0 37.664 7.918 7.968 19.609 9.834 29.286 5.589 0 0 5.427-2.418 8.388-5.942 2.968-3.516 5.563-8.449 5.563-8.449zm-7.259 10.996l11.15 11.22 3.581-.433.748-4.06-11.149-11.22" stroke="#fff" stroke-width="2" stroke-miterlimit="10" stroke-linecap="round" stroke-linejoin="round"/><path d="M104.466 90.32a19.243 19.243 0 00-16.64 5.47 19.42 19.42 0 00-5.523 11.404m42.003-90.6l20.15 7.368-20.15 54.474m0 4.748l23.5-48.099-6.239-3.307" stroke="#fff" stroke-width="2" stroke-miterlimit="10" stroke-linecap="round" stroke-linejoin="round"/></svg>