<svg width="27" height="30" fill="none" xmlns="http://www.w3.org/2000/svg"><path d="M23.052 4.388C25.69 6.903 26 10.199 26 13.498c0 3.296-.312 6.595-2.948 9.11-2.639 2.516-6.095 2.811-9.554 2.811-1.178 0-1.822.027-2.967-.121-.563-.072-2.59 3.303-3.134 3.171-.332-.082-.475-3.975-.68-4.06a8.987 8.987 0 01-2.769-1.8C1.31 20.093 1 16.797 1 13.499c0-3.297.312-6.596 2.948-9.111 2.636-2.516 6.095-2.81 9.554-2.81 3.455 0 6.914.294 9.55 2.81z" stroke="#AB68FF" stroke-width="1.5" stroke-miterlimit="10" stroke-linecap="round" stroke-linejoin="round"/><path d="M8.895 16.184c3.917 4.218 7.763 5.484 8.707 5.34.944-.148 2.684-1.673 2.613-2.664-.072-.99-3.12-3.112-3.846-3.04-.726.072-1.087.951-1.087.951s-.361.925-1.598.364c-1.75-.797-4.933-4.24-4.79-4.972 0 0-.097-.583.873-1.144.5-.292 1.161-1 .387-2.266-.775-1.266-2.008-3.365-3.362-2.388-1.353.978-2.32 1.778-1.783 3.365.947 2.797 3.886 6.454 3.886 6.454zm5.115-6.939s1.158-.151 2.02.836c.8.915.57 2.138.57 2.138m2.147.548s.517-2.509-1.452-4.362c-1.968-1.853-4.012-1.35-4.012-1.35" stroke="#AB68FF" stroke-width="1.5" stroke-miterlimit="10" stroke-linecap="round" stroke-linejoin="round"/><path d="M12.483 4.939s4.11-.725 6.778 2.276c2.669 3 1.66 6.572 1.66 6.572" stroke="#AB68FF" stroke-width="1.5" stroke-miterlimit="10" stroke-linecap="round" stroke-linejoin="round"/></svg>