<svg width="32" height="22" fill="none" xmlns="http://www.w3.org/2000/svg"><path d="M6.417 1.448c.706 0-.312 1.22.974 5.394.512 1.661 1.302 3.54 2.72 4.79 1.886 1.659 2.144.78 2.144-.764 0-1.545 0-6.008-.43-7.176-.431-1.169-1.222-1.22-.794-2.158.274-.606 2.404-.513 4.246-.513 1.842 0 2.826-.21 2.826 1.292V9.53c0 1.041.705 1.837 2.354-.21s3.216-5.339 3.61-6.259c.393-.92.7-2.061 2.271-2.061h3.022c1.147 0 1.706.586.706 2.692 0 0-2.565 4.725-3.375 5.945-1.354 2.044-1.55 2.213.078 3.943 1.255 1.334 2.781 3.484 3.741 5.09.631 1.055.862 2.296-.824 2.296H26.43c-1.804 0-1.886-.79-3.534-2.757-1.744-2.085-2.544-2.73-3.005-2.975-.913-.486-1.791-.524-1.791 1.438 0 3.212.586 4.297-1.747 4.297-2.551 0-6.93.083-10.774-4.239C.39 10.885.342 1.448 1.88 1.448h4.538z" stroke="#07F" stroke-width="1.5" stroke-miterlimit="10" stroke-linecap="round" stroke-linejoin="round"/></svg>