<svg width="28" height="28" fill="none" xmlns="http://www.w3.org/2000/svg"><path d="M10.389 17.663c-2.883-3.428-3.364-6.159-2.876-7.74.249-.807.474-1.543 1.301-2.206 1.023-.82 1.383-.595 1.82-.158l.935 2.448c.212.663-.269 1.158-.565 1.454l-.901.9s.592 1.942 2.068 3.418l.397.404c1.477 1.476 3.364 1.904 3.364 1.904l1.254-1.255c.293-.293.65-.83 1.443-.47l2.479 1.065c.437.438.565 1.016-.505 2.082-1.974 1.975-6.35 1.988-10.215-1.846z" stroke="#75CD1E" stroke-width="1.5" stroke-miterlimit="10" stroke-linecap="round" stroke-linejoin="round"/><path d="M27 13.872c0 7.107-5.762 12.869-12.869 12.869-2.378 0-4.604-.646-6.515-1.77L1 26.923l2.15-6.34a12.8 12.8 0 01-1.888-6.71c0-7.107 5.762-12.869 12.87-12.869C21.237 1.003 27 6.765 27 13.872z" stroke="#75CD1E" stroke-width="1.5" stroke-miterlimit="10" stroke-linecap="round" stroke-linejoin="round"/></svg>