<svg width="143" height="156" viewBox="0 0 143 156" fill="none" xmlns="http://www.w3.org/2000/svg">
<path d="M7.17285 69.9101V1.29736H118.563V65.3027" stroke="white" stroke-width="2" stroke-miterlimit="10" stroke-linecap="round" stroke-linejoin="round"/>
<path d="M7.17285 16.2256H118.563" stroke="white" stroke-width="2" stroke-miterlimit="10" stroke-linecap="round" stroke-linejoin="round"/>
<path d="M25.5078 37.7312H88.6627" stroke="white" stroke-width="2" stroke-miterlimit="10" stroke-linecap="round" stroke-linejoin="round"/>
<path d="M25.5078 48.5425H88.6627" stroke="white" stroke-width="2" stroke-miterlimit="10" stroke-linecap="round" stroke-linejoin="round"/>
<path d="M25.2148 59.9246H64.3383" stroke="white" stroke-width="2" stroke-miterlimit="10" stroke-linecap="round" stroke-linejoin="round"/>
<path d="M54 130L77.8738 129.952" stroke="white" stroke-width="2" stroke-miterlimit="10" stroke-linecap="round" stroke-linejoin="round"/>
<path d="M32.9446 119.027C42.2466 125.749 55.2496 123.64 61.9876 114.316C68.7256 104.993 66.6469 91.9846 57.3448 85.2623C48.0428 78.5401 35.0398 80.649 28.3018 89.9728C21.5639 99.2965 23.6425 112.304 32.9446 119.027Z" stroke="white" stroke-width="2" stroke-miterlimit="10" stroke-linecap="round" stroke-linejoin="round"/>
<path d="M29.3898 115.759L19.0744 142.532L34.8013 133.763L43.6458 147.038L49.3623 122.513" stroke="white" stroke-width="2" stroke-miterlimit="10" stroke-linecap="round" stroke-linejoin="round"/>
<path d="M32.9697 104.594C32.6007 101.593 33.3207 98.4568 35.2339 95.8093C39.2491 90.2533 46.9927 88.9974 52.5358 93.0032C55.6668 95.2659 57.4267 98.7236 57.6355 102.308" stroke="white" stroke-width="2" stroke-miterlimit="10" stroke-linecap="round" stroke-linejoin="round"/>
<path d="M136.101 99.168L130.828 72L76 81.1864L84.7052 126.005L86.6531 135.237L141.481 126.051L136.101 99.168Z" stroke="white" stroke-width="2" stroke-miterlimit="10" stroke-linecap="round" stroke-linejoin="round"/>
<path d="M86 90.9215L88.8973 94L91 88" stroke="white" stroke-width="2" stroke-miterlimit="10" stroke-linecap="round" stroke-linejoin="round"/>
<path d="M98.1973 90.0344L123.642 85.4678" stroke="white" stroke-width="2" stroke-miterlimit="10" stroke-linecap="round" stroke-linejoin="round"/>
<path d="M89 105.921L91.8973 109L94 103" stroke="white" stroke-width="2" stroke-miterlimit="10" stroke-linecap="round" stroke-linejoin="round"/>
<path d="M101.095 104.914L126.539 100.354" stroke="white" stroke-width="2" stroke-miterlimit="10" stroke-linecap="round" stroke-linejoin="round"/>
<path d="M92 120.919L94.8973 124L97 118" stroke="white" stroke-width="2" stroke-miterlimit="10" stroke-linecap="round" stroke-linejoin="round"/>
<path d="M104.256 120.046L129.701 115.486" stroke="white" stroke-width="2" stroke-miterlimit="10" stroke-linecap="round" stroke-linejoin="round"/>
<path d="M15.6289 130H7V83.5" stroke="white" stroke-width="2" stroke-miterlimit="10" stroke-linecap="round" stroke-linejoin="round"/>
</svg>
